<svg width="16" height="16" viewBox="0 0 16 16" fill="none" xmlns="http://www.w3.org/2000/svg">
<path fill-rule="evenodd" clip-rule="evenodd" d="M5.20659 1.33301H10.7933C13.2199 1.33301 14.6666 2.77967 14.6599 5.20634V10.793C14.6599 13.2197 13.2133 14.6663 10.7866 14.6663H5.20659C2.77992 14.6663 1.33325 13.2197 1.33325 10.7863V5.20634C1.33325 2.77967 2.77992 1.33301 5.20659 1.33301ZM10.4748 11.1816L7.99992 8.70673L5.52504 11.1816C5.33177 11.3749 5.01121 11.3749 4.81794 11.1816C4.62466 10.9883 4.62466 10.6678 4.81794 10.4745L7.29281 7.99962L4.81794 5.52475C4.62466 5.33147 4.62466 5.01092 4.81794 4.81764C5.01121 4.62437 5.33177 4.62437 5.52504 4.81764L7.99992 7.29252L10.4748 4.81764C10.6681 4.62437 10.9886 4.62437 11.1819 4.81764C11.3752 5.01092 11.3752 5.33147 11.1819 5.52475L8.70703 7.99962L11.1819 10.4745C11.3752 10.6678 11.3752 10.9883 11.1819 11.1816C10.9886 11.3749 10.6681 11.3749 10.4748 11.1816Z" fill="#6B6B6B"/>
</svg>
