<svg width="67" height="50" viewBox="0 0 67 50" fill="none" xmlns="http://www.w3.org/2000/svg">
<g filter="url(#filter0_d_1488_1944)">
<path d="M16.3218 21.5589C16.4376 20.4294 17.4793 19.5748 18.6124 19.6798L48.0102 22.4028C49.147 22.5081 49.9155 23.5362 49.6971 24.6596L47.1042 38.0016C46.8999 39.0524 45.9031 39.8014 44.8398 39.7029L16.6555 37.0923C15.5886 36.9935 14.8332 36.0767 14.9422 35.0133L16.3218 21.5589Z" fill="#454545"/>
<path fill-rule="evenodd" clip-rule="evenodd" d="M60.3476 24.3412C60.3476 24.3412 60.3476 24.3412 60.3476 24.3412L36.7982 15.0448C35.098 14.3736 33.223 14.1904 31.3814 14.5157L5.8744 19.0204C5.87438 19.0204 5.87436 19.0204 5.87435 19.0204L5.87347 19.0203C5.8734 19.0203 5.87337 19.0204 5.87344 19.0204L5.87356 19.0205C5.87359 19.0205 5.87358 19.0205 5.87355 19.0205C5.87352 19.0206 5.87352 19.0206 5.87355 19.0206L5.87393 19.0206C5.87394 19.0206 5.87395 19.0206 5.87396 19.0206L29.4233 28.317C31.1235 28.9882 32.9985 29.1714 34.8401 28.8461L60.3472 24.3414C60.3472 24.3414 60.3472 24.3414 60.3472 24.3414L60.3481 24.3415C60.3481 24.3415 60.3482 24.3414 60.3481 24.3414L60.348 24.3413C60.3479 24.3413 60.348 24.3413 60.348 24.3413C60.348 24.3412 60.348 24.3412 60.348 24.3412L60.3476 24.3412Z" fill="#6B6B6B"/>
</g>
<defs>
<filter id="filter0_d_1488_1944" x="5.87354" y="14.3594" width="60.4746" height="31.3525" filterUnits="userSpaceOnUse" color-interpolation-filters="sRGB">
<feFlood flood-opacity="0" result="BackgroundImageFix"/>
<feColorMatrix in="SourceAlpha" type="matrix" values="0 0 0 0 0 0 0 0 0 0 0 0 0 0 0 0 0 0 127 0" result="hardAlpha"/>
<feOffset dx="4" dy="4"/>
<feGaussianBlur stdDeviation="1"/>
<feComposite in2="hardAlpha" operator="out"/>
<feColorMatrix type="matrix" values="0 0 0 0 0 0 0 0 0 0 0 0 0 0 0 0 0 0 0.1 0"/>
<feBlend mode="normal" in2="BackgroundImageFix" result="effect1_dropShadow_1488_1944"/>
<feBlend mode="normal" in="SourceGraphic" in2="effect1_dropShadow_1488_1944" result="shape"/>
</filter>
</defs>
</svg>
