<svg width="1900" height="360" viewBox="0 0 1900 360" fill="none" xmlns="http://www.w3.org/2000/svg">
<path fill-rule="evenodd" clip-rule="evenodd" d="M-20 252V108H18.3951V216H58.39V324H96.7851V72H136.78V252H175.175V108H215.17V180H253.565V36H293.56V360H331.955V72H371.95V180H410.345V288H450.34V324H488.735V108H528.73V216H567.125V252H607.12H645.515V36H685.51V216H723.905V180H763.9V324H802.295V180H842.29V72H880.685V324H920.68V252H959.075V108H999.07V72H1037.46V288H1077.46H1115.85V144H1155.85V216H1194.24V252H1234.24V36H1272.63V252H1312.63V216H1351.02V144H1391.02V180H1429.41V252H1469.41V288H1507.8V216H1547.8V324H1586.19V108H1626.19V72H1664.58V324H1704.58V252H1742.97H1782.97V324H1821.36V180H1861.36V72H1899.75V0H1861.36H1821.36H1782.97H1742.97H1704.58H1664.58H1626.19H1586.19H1547.8H1507.8H1469.41H1429.41H1391.02H1351.02H1312.63H1272.63H1234.24H1194.24H1155.85H1115.85H1077.46H1037.46H999.07H959.075H920.68H880.685H842.29H802.295H763.9H723.905H685.51H645.515H607.12H567.125H528.73H488.735H450.34H410.345H371.95H331.955H293.56H253.565H215.17H175.175H136.78H96.7851H58.39H18.3951H-20V252Z" fill="url(#paint0_linear_564_6301)"/>
<defs>
<linearGradient id="paint0_linear_564_6301" x1="939.877" y1="0" x2="939.877" y2="360" gradientUnits="userSpaceOnUse">
<stop stop-color="#D085FA"/>
<stop offset="1" stop-color="#F0DDFB" stop-opacity="0.3"/>
</linearGradient>
</defs>
</svg>
