<svg width="166" height="158" viewBox="0 0 166 158" fill="none" xmlns="http://www.w3.org/2000/svg">
<g filter="url(#filter0_f_564_6304)">
<path fill-rule="evenodd" clip-rule="evenodd" d="M129.36 24.8132C131.696 21.1992 130.924 16.4502 127.638 14.2059C124.351 11.9616 119.794 13.0719 117.459 16.6858L108.417 30.6798L103.636 20.165C101.953 16.4634 97.578 15.0889 93.8645 17.095C90.1509 19.1011 88.5049 23.7281 90.188 27.4297L98.5847 45.8965L86.2723 64.9514L76.5374 43.5413L87.1106 27.3779C89.4191 23.8487 88.5836 19.1136 85.2443 16.8018C81.905 14.49 77.3264 15.4768 75.0178 19.006L69.3329 27.6966L62.5523 12.7841C60.8692 9.08254 56.4944 7.70809 52.7809 9.71419C49.0673 11.7203 47.4213 16.3473 49.1044 20.0489L55.8615 34.9098L44.5828 34.4556C40.444 34.2889 36.8092 37.5 36.4642 41.6278C36.1192 45.7555 39.1947 49.2368 43.3335 49.4035L62.8083 50.1878L72.0801 70.5791L45.8773 69.5239L40.0072 56.4041C38.3121 52.6156 33.98 51.1199 30.3312 53.0632C26.6823 55.0066 25.0984 59.6531 26.7935 63.4415L29.2146 68.8529L16.1903 68.3284C12.1377 68.1652 8.56728 71.4456 8.21544 75.6553C7.86361 79.8651 10.8636 83.4101 14.9162 83.5733L30.6102 84.2053L24.109 94.2667C21.8206 97.8084 22.6848 102.536 26.0392 104.827C29.3936 107.118 33.9681 106.104 36.2565 102.562L47.6738 84.8924L72.7353 85.9017L57.2157 109.92L37.8396 109.017C33.7899 108.828 30.2022 112.088 29.8264 116.297C29.4505 120.506 32.4288 124.072 36.4786 124.26L47.6144 124.779L39.7374 136.97C37.4022 140.584 38.1734 145.333 41.4599 147.577C44.7463 149.822 49.3035 148.711 51.6386 145.097L58.7872 134.034L61.8704 140.815C63.5534 144.516 67.9283 145.891 71.6418 143.885C75.3554 141.879 77.0014 137.252 75.3183 133.55L68.6195 118.817L83.5248 95.7495L93.3106 117.271L82.8873 133.206C80.5787 136.735 81.4142 141.47 84.7535 143.782C88.0928 146.094 92.6714 145.107 94.98 141.578L100.515 133.116L106.266 145.765C107.95 149.467 112.324 150.841 116.038 148.835C119.751 146.829 121.398 142.202 119.714 138.5L114.351 126.704L121.623 126.997C125.762 127.163 129.396 123.952 129.741 119.825C130.086 115.697 127.011 112.215 122.872 112.049L107.404 111.426L96.2285 86.8478L119.699 87.7929L127.004 104.12C128.699 107.909 133.031 109.405 136.68 107.461C140.329 105.518 141.913 100.871 140.218 97.0829L136.362 88.464L149.8 89.0052C153.853 89.1683 157.423 85.888 157.775 81.6782C158.127 77.4685 155.127 73.9235 151.074 73.7603L138.665 73.2606L142.859 66.7705C145.147 63.2288 144.283 58.5007 140.929 56.21C137.574 53.9193 133 54.9333 130.711 58.475L121.602 72.5734L99.086 71.6667L111.627 52.2574L129.489 53.0898C133.539 53.2786 137.127 50.0193 137.502 45.81C137.878 41.6007 134.9 38.0354 130.85 37.8466L121.229 37.3982L129.36 24.8132Z" fill="white" fill-opacity="0.35"/>
</g>
<defs>
<filter id="filter0_f_564_6304" x="0.1875" y="0.791992" width="165.616" height="156.966" filterUnits="userSpaceOnUse" color-interpolation-filters="sRGB">
<feFlood flood-opacity="0" result="BackgroundImageFix"/>
<feBlend mode="normal" in="SourceGraphic" in2="BackgroundImageFix" result="shape"/>
<feGaussianBlur stdDeviation="4" result="effect1_foregroundBlur_564_6304"/>
</filter>
</defs>
</svg>
