<svg width="96" height="103" viewBox="0 0 96 103" fill="none" xmlns="http://www.w3.org/2000/svg">
<g filter="url(#filter0_f_564_6323)">
<path fill-rule="evenodd" clip-rule="evenodd" d="M56.5987 4.61556C58.5045 4.85032 59.7767 6.59349 59.4402 8.50904L57.2847 20.7805L64.9229 17.5368C66.691 16.786 68.6434 17.6668 69.2837 19.5042C69.924 21.3416 69.0097 23.4398 67.2416 24.1907L55.8348 29.0347L52.7719 46.4716L67.8817 39.9504L70.2343 26.5571C70.5708 24.6415 72.3885 23.279 74.2943 23.5137C76.2001 23.7485 77.4723 25.4917 77.1358 27.4072L75.5109 36.6577L86.6387 31.8551C88.4475 31.0745 90.4285 31.8903 91.0635 33.6774C91.6985 35.4645 90.747 37.546 88.9383 38.3266L78.7625 42.7184L84.816 47.6786C86.272 48.8716 86.454 51.0965 85.2225 52.648C83.9911 54.1995 81.8125 54.4901 80.3566 53.2971L71.3503 45.9174L56.0183 52.5345L68.7857 62.86L78.7459 58.5612C80.5097 57.8 82.4676 58.6692 83.1191 60.5026C83.7706 62.336 82.8688 64.4393 81.1051 65.2006L74.9595 67.8529L82.3926 73.8644C83.8563 75.0481 84.0517 77.2709 82.8291 78.8292C81.6065 80.3874 79.4288 80.691 77.9651 79.5073L70.0542 73.1095L68.6199 81.0098C68.2636 82.9724 66.4703 84.3685 64.6144 84.1281C62.7585 83.8876 61.5428 82.1017 61.8991 80.1391L64.056 68.2585L50.8245 57.5577L47.3817 77.1574L55.2909 83.5538C56.7939 84.7693 57.045 86.9875 55.8518 88.5083C54.6585 90.029 52.4728 90.2765 50.9698 89.0609L45.9972 85.0394L44.2186 95.1651C43.8821 97.0807 42.0644 98.4432 40.1586 98.2085C38.2528 97.9737 36.9806 96.2305 37.3171 94.315L39.1989 83.6016L31.7124 86.7808C29.9443 87.5316 27.9919 86.6508 27.3516 84.8134C26.7113 82.976 27.6256 80.8778 29.3937 80.1269L40.6489 75.3473L43.724 57.8406L25.961 65.5069L24.061 76.3235C23.7245 78.239 21.9068 79.6016 20.001 79.3668C18.0952 79.132 16.823 77.3889 17.1595 75.4733L18.3317 68.7996L9.14755 72.7634C7.33881 73.5441 5.35777 72.7282 4.72276 70.9411C4.08775 69.154 5.03924 67.0725 6.84798 66.2919L16.7629 62.0127L9.98474 56.4587C8.5288 55.2657 8.34681 53.0408 9.57826 51.4893C10.8097 49.9378 12.9883 49.6472 14.4442 50.8402L24.1751 58.8137L42.5641 50.8772L28.5748 39.5636L16.242 44.8863C14.4782 45.6476 12.5203 44.7784 11.8688 42.945C11.2173 41.1116 12.1191 39.0082 13.8828 38.247L22.401 34.5706L13.396 27.2879C11.9323 26.1042 11.7369 23.8814 12.9595 22.3232C14.1822 20.7649 16.3599 20.4613 17.8235 21.6451L25.5346 27.8813L26.5688 22.185C26.9251 20.2224 28.7184 18.8263 30.5743 19.0668C32.4302 19.3072 33.6459 21.0931 33.2896 23.0557L31.5328 32.7322L46.0694 44.4885L49.0049 27.7769L39.1761 19.828C37.6731 18.6125 37.4219 16.3943 38.6152 14.8735C39.8084 13.3527 41.9941 13.1053 43.4971 14.3208L50.3894 19.8949L52.5387 7.6589C52.8752 5.74335 54.6929 4.3808 56.5987 4.61556Z" fill="white" fill-opacity="0.35"/>
</g>
<defs>
<filter id="filter0_f_564_6323" x="0.525879" y="0.588867" width="94.7344" height="101.646" filterUnits="userSpaceOnUse" color-interpolation-filters="sRGB">
<feFlood flood-opacity="0" result="BackgroundImageFix"/>
<feBlend mode="normal" in="SourceGraphic" in2="BackgroundImageFix" result="shape"/>
<feGaussianBlur stdDeviation="2" result="effect1_foregroundBlur_564_6323"/>
</filter>
</defs>
</svg>
