<svg width="129" height="66" viewBox="0 0 129 66" fill="none" xmlns="http://www.w3.org/2000/svg">
<rect x="1.31374" y="1.94875" width="126.543" height="62.2116" rx="9.54074" fill="#F7F1FA" stroke="#6B6B6B" stroke-width="2.12017"/>
<path d="M68.0202 45.5969V51.5986H67.0344V45.5969H68.0202ZM66.2219 45.7594V51.5769H65.2468V51.0894H63.611V50.3744H65.2468V45.7594H66.2219ZM59.6676 49.3127C60.9784 49.3127 63.156 49.2911 64.7593 49.0311L64.8352 49.7352C64.2014 49.8652 63.5027 49.9519 62.8093 50.0061V51.5553H61.8126V50.0602C61.0489 50.0982 60.3339 50.1036 59.7651 50.1036L59.6676 49.3127ZM62.3543 51.9344V52.7578H67.0019V51.9344H68.0202V55.1845H61.3468V51.9344H62.3543ZM62.3543 54.372H67.0019V53.5595H62.3543V54.372ZM62.2676 45.9327C63.5352 45.9435 64.391 46.4852 64.391 47.3735C64.391 48.2619 63.5352 48.8252 62.2676 48.8252C60.9893 48.8252 60.1443 48.2619 60.1443 47.3735C60.1443 46.4852 60.9893 45.9435 62.2676 45.9327ZM62.2676 46.6694C61.531 46.6585 61.0759 46.9185 61.0759 47.3735C61.0759 47.8286 61.531 48.0886 62.2676 48.0886C62.9935 48.0886 63.4702 47.8286 63.4702 47.3735C63.4702 46.9185 62.9935 46.6585 62.2676 46.6694Z" fill="black"/>
<path d="M64.5852 39.3628C56.9673 39.3628 50.7754 33.1708 50.7754 25.553C50.7754 17.9351 56.9673 11.7432 64.5852 11.7432C72.2031 11.7432 78.395 17.9351 78.395 25.553C78.395 33.1708 72.2031 39.3628 64.5852 39.3628ZM64.5852 13.6701C58.0336 13.6701 52.7023 19.0013 52.7023 25.553C52.7023 32.1046 58.0336 37.4358 64.5852 37.4358C71.1368 37.4358 76.468 32.1046 76.468 25.553C76.468 19.0013 71.1368 13.6701 64.5852 13.6701Z" fill="black"/>
<path d="M60.7314 38.0767H59.4468C58.9201 38.0767 58.4833 37.6399 58.4833 37.1132C58.4833 36.5865 58.8944 36.1626 59.4211 36.1498C57.4042 29.2641 57.4042 21.8389 59.4211 14.9533C58.8944 14.9405 58.4833 14.5165 58.4833 13.9898C58.4833 13.4631 58.9201 13.0264 59.4468 13.0264H60.7314C61.0397 13.0264 61.3352 13.1805 61.5151 13.4246C61.6949 13.6815 61.7463 14.0027 61.6435 14.2982C59.2284 21.5563 59.2284 29.5467 61.6435 36.8178C61.7463 37.1132 61.6949 37.4344 61.5151 37.6913C61.3352 37.9225 61.0397 38.0767 60.7314 38.0767Z" fill="black"/>
<path d="M68.4391 38.0769C68.3364 38.0769 68.2336 38.064 68.1308 38.0255C67.6298 37.8585 67.3472 37.3061 67.5271 36.8051C69.9422 29.5469 69.9422 21.5565 67.5271 14.2855C67.3601 13.7845 67.6298 13.2321 68.1308 13.0651C68.6447 12.8981 69.1842 13.1678 69.3512 13.6688C71.9077 21.3252 71.9077 29.7524 69.3512 37.396C69.2228 37.8199 68.8374 38.0769 68.4391 38.0769Z" fill="black"/>
<path d="M64.5852 32.2321C61.0011 32.2321 57.4298 31.7311 53.987 30.7162C53.9742 31.2301 53.5502 31.654 53.0235 31.654C52.4968 31.654 52.0601 31.2172 52.0601 30.6905V29.4059C52.0601 29.0976 52.2142 28.8021 52.4583 28.6222C52.7152 28.4424 53.0364 28.391 53.3318 28.4938C60.59 30.9089 68.5933 30.9089 75.8515 28.4938C76.1469 28.391 76.4681 28.4424 76.725 28.6222C76.9819 28.8021 77.1232 29.0976 77.1232 29.4059V30.6905C77.1232 31.2172 76.6865 31.654 76.1598 31.654C75.6331 31.654 75.2091 31.2429 75.1963 30.7162C71.7406 31.7311 68.1694 32.2321 64.5852 32.2321Z" fill="black"/>
<path d="M76.1468 22.661C76.044 22.661 75.9412 22.6482 75.8385 22.6097C68.5803 20.1945 60.577 20.1945 53.3189 22.6097C52.805 22.7767 52.2655 22.5069 52.0985 22.0059C51.9443 21.492 52.2141 20.9525 52.7151 20.7855C60.3715 18.2291 68.7987 18.2291 76.4422 20.7855C76.9432 20.9525 77.2259 21.5049 77.046 22.0059C76.9304 22.4041 76.545 22.661 76.1468 22.661Z" fill="black"/>
</svg>
