<svg width="172" height="203" viewBox="0 0 172 203" fill="none" xmlns="http://www.w3.org/2000/svg">
<g filter="url(#filter0_d_1610_6442)">
<rect x="4" width="163.711" height="192.528" rx="9.92188" fill="white"/>
<path d="M167.712 184.344C167.712 189.823 163.27 194.266 157.79 194.266L13.9228 194.266C8.44311 194.266 4.00093 189.823 4.00093 184.344L4.00094 109.57L167.712 109.57L167.712 184.344Z" fill="#FFF5DB"/>
<circle cx="85.8554" cy="147.963" r="15.789" fill="white"/>
<path d="M88.3414 119.523C87.3867 121.177 84.9999 121.177 84.0451 119.523L76.1054 105.771C75.1506 104.118 76.3441 102.051 78.2535 102.051L94.133 102.051C96.0425 102.051 97.2359 104.118 96.2812 105.771L88.3414 119.523Z" fill="white"/>
</g>
<defs>
<filter id="filter0_d_1610_6442" x="0" y="0" width="171.712" height="202.266" filterUnits="userSpaceOnUse" color-interpolation-filters="sRGB">
<feFlood flood-opacity="0" result="BackgroundImageFix"/>
<feColorMatrix in="SourceAlpha" type="matrix" values="0 0 0 0 0 0 0 0 0 0 0 0 0 0 0 0 0 0 127 0" result="hardAlpha"/>
<feOffset dy="4"/>
<feGaussianBlur stdDeviation="2"/>
<feComposite in2="hardAlpha" operator="out"/>
<feColorMatrix type="matrix" values="0 0 0 0 0 0 0 0 0 0 0 0 0 0 0 0 0 0 0.25 0"/>
<feBlend mode="normal" in2="BackgroundImageFix" result="effect1_dropShadow_1610_6442"/>
<feBlend mode="normal" in="SourceGraphic" in2="effect1_dropShadow_1610_6442" result="shape"/>
</filter>
</defs>
</svg>
