<svg width="26" height="30" viewBox="0 0 26 30" fill="none" xmlns="http://www.w3.org/2000/svg">
<path fill-rule="evenodd" clip-rule="evenodd" d="M12.9551 6.78587C14.6028 6.9049 16.035 5.66569 16.154 4.018C16.2731 2.37031 15.0338 0.938092 13.3861 0.819054C11.7385 0.700015 10.3062 1.93923 10.1872 3.58692C10.0682 5.23461 11.3074 6.66683 12.9551 6.78587ZM13.0593 5.34081C13.9088 5.40219 14.6473 4.76323 14.7087 3.91366C14.7701 3.06409 14.1311 2.32562 13.2815 2.26424C12.432 2.20286 11.6935 2.84182 11.6321 3.69139C11.5707 4.54096 12.2097 5.27943 13.0593 5.34081Z" fill="#0276E0"/>
<path fill-rule="evenodd" clip-rule="evenodd" d="M3.38008 7.80708C3.78089 4.85024 6.41137 2.71447 9.3875 2.92948L17.4691 3.51334C20.439 3.72791 22.7329 6.21008 22.7131 9.18768L22.6649 16.4354C23.2817 16.5469 23.7444 17.0919 23.7331 17.7389L23.6519 22.3816C23.641 23.0011 23.199 23.5119 22.617 23.633L22.615 23.9326C22.5932 27.1992 19.8146 29.7671 16.5564 29.5317L6.59277 28.8119C3.34096 28.5769 0.961859 25.6468 1.39979 22.416L1.44118 22.1107C0.843997 21.9171 0.458616 21.3135 0.558058 20.6732L1.27071 16.0848C1.36257 15.4934 1.8392 15.0572 2.40622 14.9915L3.38008 7.80708Z" fill="#50ABFF"/>
<rect x="8.19446" y="7.32324" width="9.41901" height="3.20247" rx="1.60123" transform="rotate(4.13219 8.19446 7.32324)" fill="#0276E0"/>
</svg>
