<svg width="1920" height="1300" viewBox="0 0 1920 1300" fill="none" xmlns="http://www.w3.org/2000/svg">
<rect width="1920" height="952.492" fill="url(#paint0_linear_1610_6427)"/>
<path fill-rule="evenodd" clip-rule="evenodd" d="M0 1191.56V1047.56H38.4V1155.56H78.4V1263.56H116.8V1011.56H156.8V1191.56H195.2V1047.56H235.2V1119.56H273.6V975.559H313.6V1299.56H352V1011.56H392V1119.56H430.4V1227.56H470.4V1263.56H508.8V1047.56H548.8V1155.56H587.2V1191.56H627.2H665.6V975.559H705.6V1155.56H744V1119.56H784V1263.56H822.4V1119.56H862.4V1011.56H900.8V1263.56H940.8V1191.56H979.2V1047.56H1019.2V1011.56H1057.6V1227.56H1097.6H1136V1083.56H1176V1155.56H1214.4V1191.56H1254.4V975.559H1292.8V1191.56H1332.8V1155.56H1371.2V1083.56H1411.2V1119.56H1449.6V1191.56H1489.6V1227.56H1528V1155.56H1568V1263.56H1606.4V1047.56H1646.4V1011.56H1684.8V1263.56H1724.8V1191.56H1763.2H1803.2V1263.56H1841.6V1119.56H1881.6V1011.56H1920V939.559H1881.6H1841.6H1803.2H1763.2H1724.8H1684.8H1646.4H1606.4H1568H1528H1489.6H1449.6H1411.2H1371.2H1332.8H1292.8H1254.4H1214.4H1176H1136H1097.6H1057.6H1019.2H979.2H940.8H900.8H862.4H822.4H784H744H705.6H665.6H627.2H587.2H548.8H508.8H470.4H430.4H392H352H313.6H273.6H235.2H195.2H156.8H116.8H78.4H38.4H0V1191.56Z" fill="url(#paint1_linear_1610_6427)"/>
<defs>
<linearGradient id="paint0_linear_1610_6427" x1="960" y1="0" x2="960" y2="952.492" gradientUnits="userSpaceOnUse">
<stop stop-color="#FFFBF2"/>
<stop offset="1" stop-color="#FFE292"/>
</linearGradient>
<linearGradient id="paint1_linear_1610_6427" x1="960" y1="939.559" x2="960" y2="1299.56" gradientUnits="userSpaceOnUse">
<stop stop-color="#FFE292"/>
<stop offset="1" stop-color="#FFF8E5"/>
</linearGradient>
</defs>
</svg>
