<svg width="25" height="25" viewBox="0 0 25 25" fill="none" xmlns="http://www.w3.org/2000/svg">
<path d="M21.0464 7.77539H3.04639C2.63639 7.77539 2.29639 7.43539 2.29639 7.02539C2.29639 6.61539 2.63639 6.27539 3.04639 6.27539H21.0464C21.4564 6.27539 21.7964 6.61539 21.7964 7.02539C21.7964 7.43539 21.4564 7.77539 21.0464 7.77539Z" fill="white"/>
<path d="M21.0464 12.7754H3.04639C2.63639 12.7754 2.29639 12.4354 2.29639 12.0254C2.29639 11.6154 2.63639 11.2754 3.04639 11.2754H21.0464C21.4564 11.2754 21.7964 11.6154 21.7964 12.0254C21.7964 12.4354 21.4564 12.7754 21.0464 12.7754Z" fill="white"/>
<path d="M21.0464 17.7754H3.04639C2.63639 17.7754 2.29639 17.4354 2.29639 17.0254C2.29639 16.6154 2.63639 16.2754 3.04639 16.2754H21.0464C21.4564 16.2754 21.7964 16.6154 21.7964 17.0254C21.7964 17.4354 21.4564 17.7754 21.0464 17.7754Z" fill="white"/>
</svg>
