<svg width="109" height="40" viewBox="0 0 109 40" fill="none" xmlns="http://www.w3.org/2000/svg">
<path d="M1.5 1.83691H31.3103V23.1495C31.3103 31.3814 24.637 38.0547 16.4052 38.0547C8.17327 38.0547 1.5 31.3814 1.5 23.1495V1.83691Z" stroke="#FFCF4A" stroke-width="3"/>
<rect x="9.45898" y="6.4541" width="2.79616" height="10.2388" fill="#B034F7"/>
<rect x="14.7207" y="19.334" width="2.63868" height="7.72388" transform="rotate(90 14.7207 19.334)" fill="#FFCF4A"/>
<rect x="14.7207" y="23.1143" width="2.63868" height="7.72388" transform="rotate(90 14.7207 23.1143)" fill="#B034F7"/>
<rect x="14.7207" y="26.8945" width="2.63868" height="7.72388" transform="rotate(90 14.7207 26.8945)" fill="#FFCF4A"/>
<path d="M22.203 19.334L27.6611 29.3989H16.7448L22.203 19.334Z" fill="#B034F7"/>
<path fill-rule="evenodd" clip-rule="evenodd" d="M22.5249 9.69785C22.0145 9.21622 21.33 8.93665 20.6111 8.91371H18.4844V6.49665H20.5149V6.49512C21.8986 6.49512 23.2276 6.99594 24.2298 7.8912C24.2656 7.92321 24.301 7.95572 24.336 7.98873C24.6278 8.2641 24.8828 8.56772 25.098 8.89279C25.6301 9.69664 25.9188 10.6316 25.9188 11.5946C25.9188 12.5577 25.6301 13.4926 25.098 14.2965C24.8828 14.6215 24.6278 14.9252 24.336 15.2005C24.301 15.2336 24.2656 15.2661 24.2298 15.2981C23.2578 16.1664 21.9783 16.6637 20.6396 16.6928V16.6945H18.4844V14.2774H20.5149V14.2771C21.2688 14.2771 21.9918 13.9945 22.5249 13.4914C22.56 13.4583 22.5941 13.4244 22.6272 13.3897C23.0961 12.8983 23.3575 12.2592 23.3575 11.5946C23.3575 10.9301 23.0961 10.2909 22.6272 9.79955C22.5941 9.7649 22.56 9.73099 22.5249 9.69785Z" fill="#B034F7"/>
<path d="M39.8185 17.9458V6.7458H42.1385V17.9458H39.8185ZM46.4979 15.8818H48.4499C48.9513 15.8818 49.4153 15.7965 49.8419 15.6258C50.2793 15.4445 50.6579 15.1938 50.9779 14.8738C51.3086 14.5538 51.5593 14.1805 51.7299 13.7538C51.9113 13.3271 52.0019 12.8631 52.0019 12.3618C52.0019 11.8605 51.9113 11.3965 51.7299 10.9698C51.5486 10.5325 51.2979 10.1538 50.9779 9.8338C50.6579 9.5138 50.2793 9.26313 49.8419 9.0818C49.4153 8.90047 48.9513 8.8098 48.4499 8.8098H46.4979V15.8818ZM44.1779 17.9458V6.7458H48.4819C49.3246 6.7458 50.1033 6.8898 50.8179 7.1778C51.5326 7.45513 52.1566 7.8498 52.6899 8.3618C53.2233 8.8738 53.6393 9.47113 53.9379 10.1538C54.2473 10.8365 54.4019 11.5725 54.4019 12.3618C54.4019 13.1618 54.2526 13.8978 53.9539 14.5698C53.6553 15.2418 53.2339 15.8338 52.6899 16.3458C52.1566 16.8471 51.5326 17.2418 50.8179 17.5298C50.1033 17.8071 49.3246 17.9458 48.4819 17.9458H44.1779ZM55.9904 17.9458V6.7458H64.5984V8.7618H58.3104V11.3218H62.4544V13.2738H58.3104V15.9298H64.6624V17.9458H55.9904ZM65.4028 17.9458L70.0108 6.7458H72.6828L77.2428 17.9458H74.7308L73.5948 15.0018H68.9708L67.8188 17.9458H65.4028ZM69.6908 13.1458H72.8908L71.2908 9.0178L69.6908 13.1458ZM45.3385 33.1058C44.5065 33.1058 43.7279 32.9618 43.0025 32.6738C42.2772 32.3751 41.6425 31.9645 41.0985 31.4418C40.5652 30.9191 40.1439 30.3111 39.8345 29.6178C39.5359 28.9138 39.3865 28.1565 39.3865 27.3458C39.3865 26.5245 39.5359 25.7671 39.8345 25.0738C40.1439 24.3698 40.5705 23.7565 41.1145 23.2338C41.6585 22.7111 42.2879 22.3058 43.0025 22.0178C43.7279 21.7191 44.5065 21.5698 45.3385 21.5698C45.9572 21.5698 46.5545 21.6551 47.1305 21.8258C47.7065 21.9965 48.2399 22.2365 48.7305 22.5458C49.2319 22.8551 49.6585 23.2285 50.0105 23.6658L48.4425 25.2178C48.0372 24.7165 47.5679 24.3378 47.0345 24.0818C46.5119 23.8258 45.9465 23.6978 45.3385 23.6978C44.8372 23.6978 44.3679 23.7938 43.9305 23.9858C43.4932 24.1671 43.1145 24.4231 42.7945 24.7538C42.4745 25.0738 42.2239 25.4578 42.0425 25.9058C41.8612 26.3431 41.7705 26.8231 41.7705 27.3458C41.7705 27.8578 41.8612 28.3378 42.0425 28.7858C42.2239 29.2231 42.4799 29.6071 42.8105 29.9378C43.1412 30.2578 43.5252 30.5085 43.9625 30.6898C44.4105 30.8711 44.8959 30.9618 45.4185 30.9618C46.0052 30.9618 46.5545 30.8391 47.0665 30.5938C47.5785 30.3485 48.0319 29.9965 48.4265 29.5378L49.9465 31.0418C49.5945 31.4685 49.1732 31.8365 48.6825 32.1458C48.1919 32.4551 47.6585 32.6951 47.0825 32.8658C46.5172 33.0258 45.9359 33.1058 45.3385 33.1058ZM50.2309 32.9458L54.8389 21.7458H57.5109L62.0709 32.9458H59.5589L58.4229 30.0018H53.7989L52.6469 32.9458H50.2309ZM54.5189 28.1458H57.7189L56.1189 24.0178L54.5189 28.1458ZM63.0217 32.9458V21.7458H65.9977L69.0697 27.7938L72.1417 21.7458H75.1177V32.9458H72.9257V24.7058L69.0377 32.1458L65.1657 24.6738V32.9458H63.0217ZM77.131 32.9458V21.7458H82.747C83.483 21.7458 84.1284 21.8951 84.683 22.1938C85.2484 22.4925 85.691 22.9085 86.011 23.4418C86.331 23.9645 86.491 24.5725 86.491 25.2658C86.491 25.9271 86.331 26.5191 86.011 27.0418C85.691 27.5645 85.2484 27.9751 84.683 28.2738C84.1177 28.5725 83.4724 28.7218 82.747 28.7218H79.451V32.9458H77.131ZM79.451 26.8018H82.491C82.9924 26.8018 83.3924 26.6631 83.691 26.3858C84.0004 26.1085 84.155 25.7405 84.155 25.2818C84.155 24.8125 84.0004 24.4391 83.691 24.1618C83.3924 23.8845 82.9924 23.7458 82.491 23.7458H79.451V26.8018ZM92.8057 33.1058C91.7923 33.1058 90.9123 32.9031 90.1657 32.4978C89.4297 32.0925 88.859 31.5165 88.4537 30.7698C88.0483 30.0125 87.8457 29.1271 87.8457 28.1138V21.7458H90.1657V28.1138C90.1657 28.6898 90.2723 29.1965 90.4857 29.6338C90.7097 30.0605 91.019 30.3911 91.4137 30.6258C91.819 30.8498 92.2883 30.9618 92.8217 30.9618C93.355 30.9618 93.819 30.8498 94.2137 30.6258C94.6083 30.3911 94.9123 30.0605 95.1257 29.6338C95.3497 29.1965 95.4617 28.6898 95.4617 28.1138V21.7458H97.7657V28.1138C97.7657 29.1165 97.563 29.9965 97.1577 30.7538C96.7523 31.5005 96.1763 32.0818 95.4297 32.4978C94.6937 32.9031 93.819 33.1058 92.8057 33.1058ZM103.615 33.1058C102.709 33.1058 101.823 32.9405 100.959 32.6098C100.095 32.2685 99.3274 31.7885 98.6554 31.1698L99.9834 29.5058C100.634 30.0818 101.258 30.4978 101.855 30.7538C102.463 31.0098 103.103 31.1378 103.775 31.1378C104.245 31.1378 104.65 31.0845 104.991 30.9778C105.333 30.8605 105.594 30.6951 105.775 30.4818C105.967 30.2685 106.063 30.0178 106.063 29.7298C106.063 29.3458 105.925 29.0525 105.647 28.8498C105.37 28.6365 104.895 28.4711 104.223 28.3538L101.999 27.9698C101.05 27.8098 100.325 27.4738 99.8234 26.9618C99.3328 26.4498 99.0874 25.7885 99.0874 24.9778C99.0874 24.2845 99.2634 23.6818 99.6154 23.1698C99.9781 22.6578 100.485 22.2685 101.135 22.0018C101.797 21.7245 102.581 21.5858 103.487 21.5858C104.309 21.5858 105.125 21.7245 105.935 22.0018C106.757 22.2791 107.482 22.6631 108.111 23.1538L106.863 24.8818C105.69 23.9858 104.511 23.5378 103.327 23.5378C102.911 23.5378 102.549 23.5911 102.239 23.6978C101.93 23.8045 101.69 23.9538 101.519 24.1458C101.359 24.3271 101.279 24.5458 101.279 24.8018C101.279 25.1431 101.402 25.4098 101.647 25.6018C101.893 25.7831 102.303 25.9218 102.879 26.0178L104.991 26.3698C106.111 26.5511 106.949 26.9085 107.503 27.4418C108.058 27.9645 108.335 28.6578 108.335 29.5218C108.335 30.2471 108.143 30.8818 107.759 31.4258C107.375 31.9591 106.826 32.3751 106.111 32.6738C105.407 32.9618 104.575 33.1058 103.615 33.1058Z" fill="black"/>
</svg>
