<svg width="405" height="146" viewBox="0 0 405 146" fill="none" xmlns="http://www.w3.org/2000/svg">
<path d="M6.03258 5.56823H116.693V84.6838C116.693 115.242 91.9208 140.014 61.3628 140.014C30.8047 140.014 6.03258 115.242 6.03258 84.6838V5.56823Z" fill="white" stroke="#FFCF4A" stroke-width="11.1365"/>
<rect x="35.5811" y="22.7079" width="10.3798" height="38.0079" fill="#B034F7"/>
<rect x="55.106" y="70.52" width="9.79518" height="28.6722" transform="rotate(90 55.106 70.52)" fill="#FFCF4A"/>
<rect x="55.106" y="84.553" width="9.79518" height="28.6722" transform="rotate(90 55.106 84.553)" fill="#B034F7"/>
<rect x="55.106" y="98.5858" width="9.79518" height="28.6722" transform="rotate(90 55.106 98.5858)" fill="#FFCF4A"/>
<path d="M82.8834 70.52L103.145 107.882H62.6218L82.8834 70.52Z" fill="#B034F7"/>
<path fill-rule="evenodd" clip-rule="evenodd" d="M84.0842 34.7483C82.191 32.9617 79.6525 31.9241 76.9857 31.8376H69.0845V22.8651H76.6228V22.8593C81.7594 22.8593 86.6928 24.7184 90.413 28.0417C90.546 28.1606 90.6774 28.2812 90.8073 28.4038C91.8905 29.426 92.8371 30.5531 93.6358 31.7598C95.6111 34.7438 96.6827 38.2145 96.6827 41.7894C96.6827 45.3644 95.6111 48.8351 93.6358 51.8191C92.8371 53.0258 91.8905 54.1529 90.8073 55.1751C90.6774 55.2976 90.546 55.4183 90.413 55.5371C86.8045 58.7607 82.0545 60.6067 77.0849 60.7146V60.721H69.0845V51.7485H76.6228V51.7471C79.4213 51.7471 82.1053 50.698 84.0842 48.8306C84.2145 48.7076 84.3411 48.5817 84.4638 48.4531C86.2047 46.629 87.1747 44.2564 87.1747 41.7894C87.1747 39.3224 86.2047 36.9499 84.4638 35.1258C84.3411 34.9972 84.2145 34.8713 84.0842 34.7483Z" fill="#B034F7"/>
<path d="M148.276 65.7911V24.2151H156.888V65.7911H148.276ZM173.071 58.1293H180.317C182.178 58.1293 183.9 57.8125 185.484 57.1789C187.108 56.5058 188.513 55.5753 189.701 54.3874C190.929 53.1995 191.859 51.8137 192.493 50.2298C193.166 48.646 193.503 46.9235 193.503 45.0625C193.503 43.2015 193.166 41.479 192.493 39.8952C191.82 38.2717 190.889 36.8661 189.701 35.6782C188.513 34.4903 187.108 33.5598 185.484 32.8866C183.9 32.2135 182.178 31.8769 180.317 31.8769H173.071V58.1293ZM164.459 65.7911V24.2151H180.436C183.564 24.2151 186.454 24.7496 189.107 25.8187C191.76 26.8482 194.077 28.3133 196.057 30.2139C198.036 32.1145 199.581 34.3319 200.689 36.8661C201.838 39.4002 202.412 42.1324 202.412 45.0625C202.412 48.0322 201.857 50.7644 200.749 53.2589C199.64 55.7535 198.076 57.9511 196.057 59.8517C194.077 61.7127 191.76 63.1778 189.107 64.2469C186.454 65.2764 183.564 65.7911 180.436 65.7911H164.459ZM208.308 65.7911V24.2151H240.263V31.6987H216.921V41.2019H232.304V48.448H216.921V58.3074H240.5V65.7911H208.308ZM243.249 65.7911L260.354 24.2151H270.273L287.2 65.7911H277.876L273.659 54.8626H256.494L252.217 65.7911H243.249ZM259.166 47.9728H271.045L265.106 32.6491L259.166 47.9728ZM168.767 122.385C165.679 122.385 162.788 121.851 160.096 120.781C157.403 119.673 155.047 118.148 153.028 116.208C151.048 114.268 149.484 112.011 148.335 109.437C147.227 106.824 146.672 104.012 146.672 101.003C146.672 97.9542 147.227 95.1428 148.335 92.5691C149.484 89.9557 151.068 87.6789 153.087 85.7387C155.106 83.7985 157.443 82.2939 160.096 81.2248C162.788 80.1161 165.679 79.5617 168.767 79.5617C171.064 79.5617 173.281 79.8785 175.419 80.512C177.557 81.1456 179.537 82.0365 181.359 83.1848C183.22 84.3331 184.804 85.7189 186.11 87.3424L180.29 93.1036C178.785 91.2426 177.043 89.8369 175.063 88.8866C173.123 87.9363 171.024 87.4612 168.767 87.4612C166.906 87.4612 165.164 87.8175 163.54 88.5303C161.917 89.2034 160.511 90.1537 159.323 91.3812C158.135 92.5691 157.205 93.9946 156.532 95.6576C155.859 97.281 155.522 99.0629 155.522 101.003C155.522 102.904 155.859 104.686 156.532 106.349C157.205 107.972 158.155 109.398 159.383 110.625C160.61 111.813 162.036 112.743 163.659 113.417C165.322 114.09 167.124 114.426 169.064 114.426C171.242 114.426 173.281 113.971 175.182 113.06C177.082 112.149 178.765 110.843 180.23 109.14L185.873 114.723C184.566 116.307 183.002 117.673 181.181 118.821C179.359 119.97 177.379 120.861 175.241 121.494C173.142 122.088 170.984 122.385 168.767 122.385ZM186.928 121.791L204.034 80.2151H213.953L230.88 121.791H221.555L217.338 110.863H200.173L195.897 121.791H186.928ZM202.846 103.973H214.725L208.785 88.6491L202.846 103.973ZM234.41 121.791V80.2151H245.457L256.861 102.666L268.264 80.2151H279.312V121.791H271.175V91.203L256.742 118.821L242.368 91.0842V121.791H234.41ZM286.786 121.791V80.2151H307.633C310.365 80.2151 312.761 80.7694 314.82 81.8781C316.918 82.9868 318.562 84.531 319.75 86.5109C320.937 88.4511 321.531 90.7081 321.531 93.2818C321.531 95.7368 320.937 97.9344 319.75 99.8746C318.562 101.815 316.918 103.339 314.82 104.448C312.721 105.557 310.326 106.111 307.633 106.111H295.398V121.791H286.786ZM295.398 98.9837H306.683C308.544 98.9837 310.029 98.4689 311.137 97.4394C312.286 96.4099 312.86 95.0439 312.86 93.3412C312.86 91.599 312.286 90.2131 311.137 89.1836C310.029 88.1541 308.544 87.6394 306.683 87.6394H295.398V98.9837ZM344.972 122.385C341.211 122.385 337.944 121.633 335.172 120.128C332.44 118.623 330.322 116.485 328.817 113.713C327.312 110.902 326.56 107.616 326.56 103.854V80.2151H335.172V103.854C335.172 105.992 335.568 107.873 336.36 109.496C337.192 111.08 338.34 112.308 339.805 113.179C341.31 114.01 343.052 114.426 345.032 114.426C347.011 114.426 348.734 114.01 350.199 113.179C351.664 112.308 352.792 111.08 353.584 109.496C354.416 107.873 354.832 105.992 354.832 103.854V80.2151H363.384V103.854C363.384 107.576 362.632 110.843 361.127 113.654C359.623 116.426 357.485 118.584 354.713 120.128C351.981 121.633 348.734 122.385 344.972 122.385ZM385.1 122.385C381.734 122.385 378.447 121.771 375.24 120.544C372.033 119.277 369.182 117.495 366.687 115.198L371.617 109.021C374.032 111.16 376.349 112.704 378.566 113.654C380.823 114.604 383.199 115.08 385.694 115.08C387.436 115.08 388.94 114.882 390.208 114.486C391.475 114.05 392.445 113.436 393.118 112.644C393.831 111.852 394.187 110.922 394.187 109.853C394.187 108.427 393.672 107.338 392.643 106.586C391.613 105.794 389.851 105.181 387.357 104.745L379.101 103.319C375.577 102.726 372.884 101.478 371.023 99.5776C369.202 97.677 368.291 95.222 368.291 92.2127C368.291 89.639 368.944 87.4018 370.251 85.5012C371.597 83.6005 373.478 82.1553 375.893 81.1654C378.348 80.1359 381.259 79.6211 384.624 79.6211C387.673 79.6211 390.702 80.1359 393.712 81.1654C396.761 82.1949 399.453 83.6203 401.789 85.4418L397.157 91.8564C392.801 88.5303 388.426 86.8672 384.031 86.8672C382.486 86.8672 381.14 87.0652 379.992 87.4612C378.843 87.8571 377.952 88.4115 377.319 89.1242C376.725 89.7973 376.428 90.6091 376.428 91.5594C376.428 92.8265 376.883 93.8164 377.794 94.5291C378.705 95.2022 380.229 95.717 382.367 96.0734L390.208 97.38C394.365 98.0532 397.473 99.3796 399.532 101.359C401.591 103.3 402.621 105.873 402.621 109.081C402.621 111.773 401.908 114.129 400.483 116.149C399.057 118.128 397.018 119.673 394.365 120.781C391.752 121.851 388.663 122.385 385.1 122.385Z" fill="black"/>

</svg>
