<svg width="25" height="25" viewBox="0 0 25 25" fill="none" xmlns="http://www.w3.org/2000/svg">
<g id="Icon / View">
<path id="Subtract" fill-rule="evenodd" clip-rule="evenodd" d="M21.2691 12.5823C21.2691 12.2235 21.075 11.9878 20.6868 11.5166C19.2667 9.79242 16.1345 6.58228 12.4988 6.58228C8.86306 6.58228 5.73085 9.79241 4.31076 11.5166C3.9226 11.9878 3.72852 12.2235 3.72852 12.5823C3.72852 12.9411 3.9226 13.1767 4.31076 13.648C5.73085 15.3721 8.86306 18.5823 12.4988 18.5823C16.1345 18.5823 19.2667 15.3721 20.6868 13.648C21.075 13.1767 21.2691 12.9411 21.2691 12.5823ZM12.4988 15.5823C14.1556 15.5823 15.4988 14.2391 15.4988 12.5823C15.4988 10.9254 14.1556 9.58228 12.4988 9.58228C10.8419 9.58228 9.49879 10.9254 9.49879 12.5823C9.49879 14.2391 10.8419 15.5823 12.4988 15.5823Z" fill="black"/>
</g>
</svg>
